<svg xmlns="http://www.w3.org/2000/svg" viewBox="0 0 256 256">
  <defs>
    <linearGradient id="g" x1="0" y1="0" x2="1" y2="1">
      <stop offset="0" stop-color="#22d3ee"/>
      <stop offset="0.55" stop-color="#a78bfa"/>
      <stop offset="1" stop-color="#f43f5e"/>
    </linearGradient>
    <radialGradient id="r" cx="50%" cy="40%" r="65%">
      <stop offset="0" stop-color="#ffffff" stop-opacity="0.25"/>
      <stop offset="1" stop-color="#000000" stop-opacity="0"/>
    </radialGradient>
    <filter id="glow" x="-40%" y="-40%" width="180%" height="180%">
      <feGaussianBlur stdDeviation="6" result="b"/>
      <feColorMatrix in="b" type="matrix"
        values="1 0 0 0 0
                0 1 0 0 0
                0 0 1 0 0
                0 0 0 0.7 0" result="c"/>
      <feMerge>
        <feMergeNode in="c"/>
        <feMergeNode in="SourceGraphic"/>
      </feMerge>
    </filter>
  </defs>

  <!-- halo -->
  <circle cx="128" cy="128" r="108" fill="url(#r)"/>

  <!-- frame -->
  <g filter="url(#glow)">
    <path d="M128 18c60.8 0 110 49.2 110 110s-49.2 110-110 110S18 188.8 18 128 67.2 18 128 18Z"
      fill="none" stroke="url(#g)" stroke-width="6" opacity="0.85"/>
    <path d="M64 64h128v128H64z" fill="#0b1220" opacity="0.35" stroke="url(#g)" stroke-width="2"/>
  </g>

  <!-- face -->
  <g>
    <path d="M80 168c0-44.2 21.5-76 48-76s48 31.8 48 76c0 9.5-1.1 18.2-3.1 26H83.1c-2-7.8-3.1-16.5-3.1-26Z"
      fill="#0b1220" stroke="url(#g)" stroke-width="3"/>
    <path d="M86 172c10-23 26-36 42-36s32 13 42 36" fill="none" stroke="#22d3ee" stroke-width="2" opacity="0.65"/>

    <!-- eyes -->
    <g>
      <path d="M102 122c8-10 18-10 26 0" fill="none" stroke="#22d3ee" stroke-width="4" stroke-linecap="round"/>
      <path d="M128 122c8-10 18-10 26 0" fill="none" stroke="#a78bfa" stroke-width="4" stroke-linecap="round"/>
      <circle cx="116" cy="128" r="3" fill="#22d3ee"/>
      <circle cx="140" cy="128" r="3" fill="#a78bfa"/>
    </g>

    <!-- mouth -->
    <path d="M112 150c10 10 22 10 32 0" fill="none" stroke="#f43f5e" stroke-width="4" stroke-linecap="round"/>
  </g>

  <!-- HUD text -->
  <g opacity="0.7" font-family="ui-monospace, SFMono-Regular, Menlo, Monaco, Consolas, monospace" font-size="10">
    <text x="30" y="44" fill="#22d3ee">CV-COACH</text>
    <text x="30" y="58" fill="#a78bfa">SIM_CLASS</text>
    <text x="180" y="44" fill="#f43f5e">v2.5D</text>
  </g>
</svg>

